<svg width="313" height="313" viewBox="0 0 313 313" fill="none" xmlns="http://www.w3.org/2000/svg">
<rect width="313" height="313" fill="black"/>
<path d="M221.538 219.341C209.465 231.559 194.15 240.077 177.396 243.895C160.642 247.712 143.145 246.67 126.963 240.89C126.124 240.578 125.361 240.091 124.726 239.46C124.092 238.829 123.599 238.069 123.283 237.233C122.966 236.396 122.833 235.501 122.891 234.608C122.95 233.715 123.199 232.846 123.622 232.057L133.654 213.202C134.353 211.914 135.479 210.909 136.839 210.358C138.198 209.808 139.707 209.747 141.106 210.186C150.884 213.094 161.265 213.313 171.157 210.818C181.048 208.323 190.082 203.207 197.306 196.01C204.53 188.813 209.677 179.802 212.203 169.927C214.729 160.052 214.541 149.679 211.659 139.901C211.224 138.518 211.283 137.027 211.825 135.683C212.367 134.338 213.359 133.223 214.632 132.527L233.442 122.263C234.23 121.831 235.102 121.574 235.998 121.508C236.894 121.442 237.794 121.57 238.637 121.882C239.48 122.195 240.245 122.684 240.882 123.318C241.519 123.952 242.011 124.715 242.327 125.556C248.054 141.558 249.141 158.85 245.463 175.442C241.785 192.034 233.492 207.251 221.538 219.341Z" fill="#F4FF8D"/>
<path d="M272.322 193.326C271.792 195.004 270.895 196.543 269.698 197.833C268.5 199.122 267.032 200.131 265.397 200.786C263.763 201.44 262.004 201.725 260.246 201.619C258.489 201.513 256.776 201.019 255.233 200.172L235.367 189.129C233.053 187.84 231.24 185.811 230.218 183.369C229.197 180.927 229.026 178.212 229.733 175.661C233.301 162.756 233.38 149.137 229.963 136.192C226.545 123.246 219.753 111.437 210.28 101.969C200.806 92.5009 188.989 85.7117 176.033 82.2936C163.077 78.8756 149.446 78.9508 136.528 82.5117C133.994 83.2204 131.296 83.0629 128.862 82.0641C126.428 81.0654 124.397 79.2827 123.093 76.9992L111.781 57.3115C110.91 55.7719 110.394 54.0577 110.27 52.2937C110.145 50.5297 110.416 48.7602 111.062 47.1138C111.708 45.4674 112.713 43.9855 114.004 42.7758C115.295 41.5662 116.839 40.6591 118.525 40.1206C139.896 33.0766 162.804 32.0915 184.702 37.2749C206.6 42.4583 226.63 53.6072 242.566 69.4823C258.502 85.3574 269.721 105.337 274.974 127.2C280.227 149.063 279.309 171.953 272.322 193.326Z" fill="#FF983B"/>
<path d="M116.976 116.07C109.755 123.368 104.658 132.491 102.231 142.462C99.8041 152.434 100.139 162.877 103.2 172.672C103.65 174.069 103.602 175.578 103.065 176.943C102.528 178.308 101.535 179.446 100.254 180.162L81.4891 190.409C80.705 190.842 79.8371 191.103 78.9438 191.172C78.0506 191.242 77.1527 191.12 76.3108 190.814C75.4688 190.508 74.7023 190.025 74.0628 189.398C73.4234 188.771 72.9259 188.014 72.6039 187.178C66.69 171.161 65.4429 153.797 69.0074 137.101C72.5719 120.404 80.8019 105.06 92.7424 92.8477C104.683 80.6357 119.844 72.0568 136.468 68.1064C153.091 64.156 170.495 64.996 186.66 70.529C187.509 70.8319 188.282 71.314 188.927 71.9426C189.573 72.5711 190.075 73.3313 190.4 74.1713C190.724 75.0112 190.864 75.9113 190.809 76.8101C190.754 77.7089 190.506 78.5853 190.081 79.3795L180.014 98.3155C179.322 99.5873 178.215 100.584 176.877 101.141C175.54 101.698 174.052 101.781 172.66 101.376C162.912 98.6229 152.602 98.534 142.808 101.119C133.013 103.703 124.092 108.867 116.976 116.07Z" fill="#0080EA"/>
<path d="M202.487 253.463C203.359 254.994 203.879 256.699 204.01 258.456C204.141 260.212 203.878 261.975 203.242 263.618C202.606 265.26 201.611 266.741 200.331 267.952C199.051 269.162 197.517 270.073 195.841 270.618C174.528 277.855 151.625 279.043 129.676 274.051C107.728 269.059 87.5962 258.082 71.5189 242.342C55.4415 226.601 44.0489 206.714 38.6082 184.891C33.1674 163.068 33.8916 140.164 40.7003 118.728C41.2232 117.042 42.1149 115.494 43.3108 114.196C44.5067 112.897 45.9768 111.881 47.6146 111.22C49.2524 110.56 51.0167 110.272 52.7798 110.377C54.5428 110.482 56.2603 110.978 57.8078 111.828L77.7008 122.898C80.001 124.166 81.81 126.168 82.8392 128.583C83.8684 130.998 84.0586 133.688 83.3794 136.223C80.6729 146.508 80.1618 157.246 81.8793 167.74C83.5967 178.235 87.5043 188.251 93.3484 197.139C96.2724 201.555 99.6462 205.658 103.416 209.381C112.993 218.854 124.928 225.599 137.989 228.919C151.049 232.238 164.76 232.012 177.703 228.263C180.251 227.531 182.97 227.675 185.426 228.671C187.881 229.667 189.931 231.459 191.246 233.758L202.487 253.463Z" fill="#FF087E"/>
<path d="M272.322 193.326C271.792 195.004 270.895 196.543 269.698 197.833C268.5 199.122 267.032 200.131 265.397 200.786C263.763 201.44 262.004 201.725 260.246 201.619C258.489 201.513 256.776 201.019 255.233 200.172L235.367 189.129C233.053 187.84 231.24 185.811 230.218 183.369C229.197 180.927 229.026 178.212 229.733 175.661C233.301 162.756 233.38 149.137 229.963 136.192C226.545 123.246 219.753 111.437 210.28 101.969C200.806 92.5009 188.989 85.7117 176.033 82.2936C163.077 78.8756 149.446 78.9508 136.528 82.5117C133.994 83.2204 131.296 83.0629 128.862 82.0641C126.428 81.0654 124.397 79.2827 123.093 76.9992L111.781 57.3115C110.91 55.7719 110.394 54.0577 110.27 52.2937C110.145 50.5297 110.416 48.7602 111.062 47.1138C111.708 45.4674 112.713 43.9855 114.004 42.7758C115.295 41.5662 116.839 40.6591 118.525 40.1206C139.896 33.0766 162.804 32.0915 184.702 37.2749C206.6 42.4583 226.63 53.6072 242.566 69.4823C258.502 85.3574 269.721 105.337 274.974 127.2C280.227 149.063 279.309 171.953 272.322 193.326Z" fill="#A373FF"/>
<path d="M202.487 253.463C203.359 254.994 203.879 256.699 204.01 258.456C204.141 260.212 203.878 261.975 203.242 263.618C202.606 265.26 201.611 266.741 200.331 267.952C199.051 269.162 197.517 270.073 195.841 270.618C174.528 277.855 151.625 279.043 129.676 274.051C107.728 269.059 87.5962 258.082 71.5189 242.342C55.4415 226.601 44.0489 206.714 38.6082 184.891C33.1674 163.068 33.8916 140.164 40.7003 118.728C41.2232 117.042 42.1149 115.494 43.3108 114.196C44.5067 112.897 45.9768 111.881 47.6146 111.22C49.2524 110.56 51.0167 110.272 52.7798 110.377C54.5428 110.482 56.2603 110.978 57.8078 111.828L77.7008 122.898C80.001 124.166 81.81 126.168 82.8392 128.583C83.8684 130.998 84.0586 133.688 83.3794 136.223C80.6729 146.508 80.1618 157.246 81.8793 167.74C83.5967 178.235 87.5043 188.251 93.3484 197.139C96.2724 201.555 99.6462 205.658 103.416 209.381C112.993 218.854 124.928 225.599 137.989 228.919C151.049 232.238 164.76 232.012 177.703 228.263C180.251 227.531 182.97 227.675 185.426 228.671C187.881 229.667 189.931 231.459 191.246 233.758L202.487 253.463Z" fill="#FF087E"/>
<path d="M116.976 116.07C109.755 123.368 104.658 132.491 102.231 142.462C99.8041 152.434 100.139 162.877 103.2 172.672C103.65 174.069 103.602 175.578 103.065 176.943C102.528 178.308 101.535 179.446 100.254 180.162L81.4891 190.409C80.705 190.842 79.8371 191.103 78.9438 191.172C78.0506 191.242 77.1527 191.12 76.3108 190.814C75.4688 190.508 74.7023 190.025 74.0628 189.398C73.4234 188.771 72.9259 188.014 72.6039 187.178C66.69 171.161 65.4429 153.797 69.0074 137.101C72.5719 120.404 80.8019 105.06 92.7424 92.8477C104.683 80.6357 119.844 72.0568 136.468 68.1064C153.091 64.156 170.495 64.996 186.66 70.529C187.509 70.8319 188.282 71.314 188.927 71.9426C189.573 72.5711 190.075 73.3313 190.4 74.1713C190.724 75.0112 190.864 75.9113 190.809 76.8101C190.754 77.7089 190.506 78.5853 190.081 79.3795L180.014 98.3155C179.322 99.5873 178.215 100.584 176.877 101.141C175.54 101.698 174.052 101.781 172.66 101.376C162.912 98.6229 152.602 98.534 142.808 101.119C133.013 103.703 124.092 108.867 116.976 116.07Z" fill="#0080EA"/>
<path d="M221.538 219.341C209.465 231.559 194.15 240.077 177.396 243.895C160.642 247.712 143.145 246.67 126.963 240.89C126.124 240.578 125.361 240.091 124.726 239.46C124.092 238.829 123.599 238.069 123.283 237.233C122.966 236.396 122.833 235.501 122.891 234.608C122.95 233.715 123.199 232.846 123.622 232.057L133.654 213.202C134.353 211.914 135.479 210.909 136.839 210.358C138.198 209.808 139.707 209.747 141.106 210.186C150.884 213.094 161.265 213.313 171.157 210.818C181.048 208.323 190.082 203.207 197.306 196.01C204.53 188.813 209.677 179.802 212.203 169.927C214.729 160.052 214.541 149.679 211.659 139.901C211.224 138.518 211.283 137.027 211.825 135.683C212.367 134.338 213.359 133.223 214.632 132.527L233.442 122.263C234.23 121.831 235.102 121.574 235.998 121.508C236.894 121.442 237.794 121.57 238.637 121.882C239.48 122.195 240.245 122.684 240.882 123.318C241.519 123.952 242.011 124.715 242.327 125.556C248.054 141.558 249.141 158.85 245.463 175.442C241.785 192.034 233.492 207.251 221.538 219.341Z" fill="#FFF985"/>
<path d="M105.306 222.133C113.166 222.133 119.538 215.767 119.538 207.913C119.538 200.06 113.166 193.693 105.306 193.693C97.4453 193.693 91.0732 200.06 91.0732 207.913C91.0732 215.767 97.4453 222.133 105.306 222.133Z" fill="#39FF89"/>
<path d="M208.506 117.824C216.366 117.824 222.738 111.458 222.738 103.604C222.738 95.751 216.366 89.3845 208.506 89.3845C200.645 89.3845 194.273 95.751 194.273 103.604C194.273 111.458 200.645 117.824 208.506 117.824Z" fill="#39FF89"/>
<path d="M119.538 141.36C130.524 141.36 139.431 132.461 139.431 121.484C139.431 110.507 130.524 101.609 119.538 101.609C108.551 101.609 99.6445 110.507 99.6445 121.484C99.6445 132.461 108.551 141.36 119.538 141.36Z" fill="#EFEFEF"/>
</svg>
