<svg width="157" height="157" viewBox="0 0 157 157" fill="none" xmlns="http://www.w3.org/2000/svg">
<rect x="1" y="1" width="155" height="155" rx="14" fill="black"/>
<rect x="1" y="1" width="155" height="155" rx="14" stroke="#4890E2" stroke-width="2"/>
<g clip-path="url(#clip0_69_3419)">
<path d="M18.7018 56.5674H16V59.2955H18.7018V56.5674Z" fill="#4890E2"/>
<path d="M18.6302 70.7493V60.941H16.0713V70.7493H18.6302ZM35.5917 70.8503V68.447C35.2831 68.4523 34.9746 68.4305 34.6697 68.382C34.4438 68.362 34.2305 68.2683 34.0621 68.115C33.9185 67.9509 33.8264 67.7474 33.7976 67.5304C33.7562 67.217 33.7371 66.901 33.7405 66.5849V63.1495H35.5917V60.941H33.7405V57.123H31.1816V66.6066C31.1678 67.2858 31.235 67.9643 31.3817 68.6274C31.4809 69.1138 31.7161 69.5613 32.0594 69.9169C32.4027 70.2725 32.8397 70.5213 33.3187 70.6338C33.9569 70.7923 34.613 70.8651 35.2701 70.8503H35.5917ZM50.2588 70.7493V56.3652H47.6999V70.7493H50.2588ZM28.7156 61.9081C28.3284 61.5127 27.8625 61.2047 27.3487 61.0044C26.8349 60.8041 26.2849 60.7161 25.735 60.7461C25.1696 60.7306 24.6084 60.8484 24.0959 61.0902C23.5835 61.332 23.1339 61.6912 22.783 62.1391L22.6472 62.3195V60.941H20.124V70.7493H22.6686V65.7477C22.6346 65.0074 22.8769 64.2811 23.3477 63.7124C23.5538 63.4851 23.8045 63.3036 24.0838 63.1793C24.3631 63.0551 24.665 62.9909 24.9702 62.9907C25.2817 62.9677 25.5944 63.0169 25.8842 63.1345C26.1741 63.2521 26.4335 63.4349 26.6428 63.6691C27.0395 64.2099 27.2367 64.8736 27.2003 65.5456V65.5456V70.7276H29.7806V65.1848C29.8527 63.9953 29.4717 62.8231 28.7156 61.9081V61.9081ZM46.3633 65.8271C46.3749 65.1495 46.2584 64.4759 46.0202 63.8423C45.78 63.2434 45.4309 62.695 44.991 62.2257C44.5413 61.7568 44.0013 61.3859 43.4042 61.1359C42.76 60.8706 42.0698 60.7381 41.3742 60.7461C40.6966 60.7404 40.0251 60.8755 39.4014 61.1431C38.1924 61.6586 37.2323 62.6332 36.7282 63.8568C36.4624 64.4863 36.3286 65.1645 36.3351 65.8488C36.3322 66.5313 36.4609 67.2078 36.7139 67.8407C36.9529 68.4455 37.3103 68.9953 37.7646 69.4574C38.2274 69.9271 38.7793 70.2977 39.3872 70.5472C40.0468 70.8208 40.754 70.9583 41.4671 70.9514C42.2786 70.9703 43.0842 70.8073 43.8257 70.4741C44.5673 70.1409 45.2265 69.6457 45.7558 69.0244L43.9188 67.5809C43.6045 67.9231 43.2243 68.197 42.8015 68.3856C42.3787 68.5742 41.9222 68.6737 41.46 68.6779C40.8309 68.7042 40.21 68.5272 39.6874 68.1727C39.2366 67.839 38.9115 67.3606 38.7653 66.8159V66.722H46.3633V65.8271ZM38.7582 64.9249C38.7582 64.2032 39.573 62.9546 41.3313 62.9546C43.0897 62.9546 43.9117 64.2032 43.9117 64.9249H38.7582Z" fill="white"/>
<path d="M53.1683 56.95C53.1186 56.8367 53.0483 56.7339 52.961 56.6469C52.8767 56.5617 52.7773 56.4931 52.668 56.4448C52.5551 56.3955 52.4335 56.3701 52.3106 56.3701C52.1877 56.3701 52.066 56.3955 51.9532 56.4448C51.8413 56.4923 51.7395 56.5609 51.653 56.6469C51.5679 56.7342 51.4999 56.8371 51.4529 56.95C51.4041 57.0639 51.3789 57.1867 51.3789 57.3109C51.3789 57.435 51.4041 57.5578 51.4529 57.6717C51.4999 57.7847 51.5679 57.8875 51.653 57.9748C51.7392 58.063 51.841 58.134 51.9532 58.1841C52.0707 58.2343 52.1973 58.2589 52.3249 58.2563C52.4501 58.2583 52.5742 58.2337 52.6894 58.1841C52.9003 58.0813 53.0695 57.9079 53.1683 57.6934C53.2174 57.5771 53.2418 57.4517 53.2398 57.3253C53.2423 57.1965 53.218 57.0686 53.1683 56.95V56.95ZM53.0111 57.6284C52.9745 57.7234 52.9185 57.8095 52.8467 57.881C52.7737 57.951 52.689 58.0072 52.5965 58.047C52.5023 58.0904 52.3998 58.1125 52.2963 58.112C52.1905 58.112 52.0858 58.0899 51.9889 58.047C51.8949 58.0101 51.8096 57.9536 51.7388 57.881C51.6673 57.8077 51.6092 57.7222 51.5672 57.6284C51.5297 57.5318 51.5103 57.429 51.51 57.3253C51.515 57.2183 51.5392 57.1131 51.5815 57.0149C51.6192 56.9223 51.6724 56.8368 51.7388 56.7623C51.8097 56.6933 51.8919 56.6372 51.9818 56.5963C52.0791 56.5557 52.1838 56.5361 52.2891 56.5386C52.3922 56.5358 52.4946 56.5555 52.5893 56.5963C52.6804 56.6388 52.7648 56.6947 52.8395 56.7623C52.9114 56.8339 52.9674 56.92 53.0039 57.0149C53.0479 57.1123 53.0698 57.2183 53.0682 57.3253C53.0733 57.4288 53.0562 57.5322 53.0182 57.6284H53.0111ZM52.4535 57.3975C52.522 57.3931 52.586 57.362 52.6322 57.3109C52.6667 57.2851 52.6945 57.2513 52.7132 57.2124C52.7319 57.1734 52.7409 57.1304 52.7394 57.0871C52.7413 57.042 52.734 56.9969 52.718 56.9548C52.7021 56.9126 52.6777 56.8741 52.6465 56.8417C52.563 56.7769 52.4584 56.746 52.3535 56.7551H51.9389V57.8594H52.139V57.4119H52.282L52.5536 57.8594H52.7609L52.4535 57.3975ZM52.3463 57.2387H52.1104V56.9356H52.3463H52.4249C52.4504 56.9464 52.4726 56.9638 52.4893 56.9861C52.4975 57.0119 52.4975 57.0397 52.4893 57.0655C52.4976 57.0937 52.4976 57.1238 52.4893 57.1521C52.4726 57.1743 52.4504 57.1918 52.4249 57.2026L52.3463 57.2387Z" fill="white"/>
<path d="M43.1045 89.1819H47.5003C47.7005 92.8339 50.0163 94.9558 53.6688 94.9558C56.8853 94.9558 59.2012 92.9782 59.2012 90.1996C59.2012 87.4209 56.9997 85.8042 53.1971 85.8042H51.2672V82.3472H52.9969C57.1569 82.3472 58.6508 80.182 58.6508 78.1034C58.6508 75.765 56.6065 74.2205 53.5902 74.2205C50.3666 74.2205 48.2866 76.1186 48.015 79.3664H43.6191C43.8479 74.8123 47.0715 70.251 53.8189 70.251C60.0231 70.251 63.2825 73.939 63.2825 77.5837C63.2825 80.4707 61.6743 82.7008 58.7651 83.8916L58.372 84.0865L58.7651 84.2092C62.2246 85.2341 63.8329 87.3993 63.8329 90.7336C63.8329 95.4898 59.4728 98.9325 53.5473 98.9325C47.2645 98.9469 43.2975 95.2084 43.1045 89.1819Z" fill="#4890E2"/>
<path d="M68.3926 98.4712V70.7207H79.4644C83.0546 70.8034 86.4702 72.3015 88.9804 74.8947C91.4906 77.4878 92.896 80.9698 92.896 84.5959C92.896 88.222 91.4906 91.7041 88.9804 94.2972C86.4702 96.8903 83.0546 98.3885 79.4644 98.4712H68.3926ZM79.1142 94.5089C81.7169 94.5089 84.2131 93.4649 86.0536 91.6065C87.894 89.7481 88.928 87.2277 88.928 84.5995C88.928 81.9714 87.894 79.451 86.0536 77.5926C84.2131 75.7342 81.7169 74.6902 79.1142 74.6902H72.6812V94.5089H79.1142Z" fill="#4890E2"/>
<path d="M109.328 70.7275L121.479 98.377H116.904L114.009 91.6216H100.343L97.4124 98.377H92.8379L105.025 70.7275H109.328ZM101.973 87.7531H112.337L107.176 75.7796L101.973 87.7531Z" fill="#4890E2"/>
<path d="M142 70.7275V74.6754H131.993V98.377H127.704V74.6754H117.697V70.7275H142Z" fill="#4890E2"/>
</g>
<defs>
<clipPath id="clip0_69_3419">
<rect width="126" height="42.5676" fill="white" transform="translate(16 56.3652)"/>
</clipPath>
</defs>
</svg>
