<?xml version="1.0" encoding="UTF-8"?><svg id="Layer_1" xmlns="http://www.w3.org/2000/svg" viewBox="0 0 1001.49 864.14"><defs><style>.cls-1{fill:#fff;}</style></defs><path class="cls-1" d="M926.5,332.41c-162.93,163.78-223.79,287.19-248.52,318.26-28.1,35.29-49.03,75.65-68.89,115.8-11.83,23.67-23.24,47.55-34.66,71.22-2.95,6.34-5.91,11.62-11.62,16.48-12.89,10.78-24.3,11.83-39.31,7.82-17.32-4.86-34.65-10.36-41.84-26.42-8.66-19.23-16.9-39.94-13.52-63.39,2.32-9.94,4.23-19.87,6.76-29.8,14.37-54.73,28.74-109.46,42.9-164.41,9.09-34.66,17.75-69.52,26.63-104.18,1.48-13.52,5.7-27.47,10.98-43.53,.22-.64,.43-1.27,.64-1.9,9.51-29.17,20.07-64.04,28.95-90.03,0-.42,.21-.63,.42-.84,1.9-5.92,3.81-11.2,5.71-15.85,4.65-10.57,9.3-21.35,13.95-31.91,14.79-34.87,31.69-76.29,45.64-119.61l1.48-4.44c1.06-3.38,2.33-6.76,2.96-10.35,.21-2.12,.84-4.44,1.48-6.77,.51-2.1,.88-3.8,1.12-5.2,.45-2.64-2.63-4.4-4.67-2.65l-.04,.04c-2.12,2.11-4.65,4.22-7.4,5.7-25.57,13.31-56.42,59.38-79.04,93.19-5.49,8.25-10.77,16.06-15.42,22.83-20.29,28.74-39.73,57.9-59.17,87.27l-10.78,16.49c-7.82,11.62-51.77,85.16-55.15,92.56-16.91,23.03-35.51,34.44-54.74,34.44-11.62,0-23.03-4.23-33.81-12.47-34.23-26.2-47.33-62.76-39.09-108.62,5.07-28.1,12.04-57.26,21.13-88.96,4.22-13.95,7.18-28.53,10.35-42.69,2.08-9.98,4.14-20.12,6.66-30.13,.28-1.1-1.04-1.91-1.88-1.14-67.69,61.37-118.53,163.05-137.91,201.82l-4.23,8.45c-15.63,30.85-31.69,56-49.02,77.13-2.33,2.96-39.1,35.29-71.01,35.29-10.14,0-18.8-3.17-25.99-9.3-19.44-14.79-33.6-32.96-42.9-55.78-3.59-8.46-4.44-17.76-2.96-27.9l.85-5.28c1.69-12.68,3.8-26,6.97-38.67,11.2-44.59,24.3-89.82,38.67-134.83,11.42-35.71,22.19-71.42,33.18-107.14,8.45-28.1,17.12-56,25.99-84.1,4.02-13.11,9.73-25.15,16.07-38.68,8.24-17.54,26.41-19.86,37.19-21.13,1.9-.21,4.01-.42,6.13-.42,10.77,0,19.86,3.59,27.04,10.35,2.33,2.33,4.87,4.23,7.61,6.34,3.17,2.33,6.13,4.86,9.09,7.61,23.46,22.82,30.85,49.45,21.77,79.25-4.23,13.52-8.67,27.26-13.11,40.78l-7.82,24.09c-1.26,3.38-2.32,6.55-2.74,9.93,0,.01,0,.03,0,.04-.18,1.1,1.26,1.7,1.94,.82,.06-.07,.11-.14,.17-.22,26.84-38.46,96.15-110.52,118.13-127.43,7.4-5.92,15.85-10.35,25.36-13.73,6.97-2.54,13.52-3.81,19.65-3.81,10.14,0,19.87,3.38,29.59,9.93,18.59,12.89,38.88,29.8,47.33,56.43l2.96,8.87c6.76,20.71,13.74,42.27,12.05,65.72-.13,2.39-.25,4.41-.29,6.19-.03,1.43,1.6,2.3,2.75,1.44,3.91-2.92,7.31-6.22,10.43-10.37,45.64-57.27,136.51-154.9,169.48-171.39,6.13-2.95,13.1-5.49,21.76-7.6,5.08-1.27,10.15-1.91,15.01-1.91,12.47,0,24.3,4.02,36.13,12.47,18.39,12.89,55.58,79.46,59.39,105.87,4.43,29.8,2.11,60.02-6.77,92.56-15.42,55.16-36.98,112.22-68.46,180.05-3.81,8.03-7.4,16.06-10.78,24.09-.42,2.11-.42,4.02-.64,5.92-.42,4.65,4.86,6.55,9.51,4.22,9.94-5.07,15.64-13.94,21.98-22.18,22.4-28.11,47.13-54.31,72.7-79.67,33.81-33.81,69.31-65.72,110.1-90.66,23.66-14.37,47.54-28.53,74.38-34.66,11.83-2.74,16.06,.21,19.44,11.2,5.5,35.51-26.84,75.02-74.38,123.2Z"/></svg>